<svg width="512" height="512" viewBox="0 0 512 512" xmlns="http://www.w3.org/2000/svg">
  <rect width="512" height="512" fill="#8B4513"/>
  <rect x="16" y="16" width="480" height="480" rx="40" fill="#C1440E"/>

  <circle cx="256" cy="256" r="200" fill="#E8A24C" opacity="0.15"/>

  <g stroke="#F4C874" stroke-width="6" fill="none" opacity="0.5">
    <circle cx="256" cy="256" r="215"/>
    <circle cx="256" cy="256" r="195"/>
  </g>

  <g fill="#F4C874">
    <circle cx="256" cy="70" r="6"/>
    <circle cx="330" cy="90" r="6"/>
    <circle cx="182" cy="90" r="6"/>
    <circle cx="386" cy="140" r="6"/>
    <circle cx="126" cy="140" r="6"/>
    <circle cx="410" cy="256" r="6"/>
    <circle cx="102" cy="256" r="6"/>
    <circle cx="386" cy="372" r="6"/>
    <circle cx="126" cy="372" r="6"/>
    <circle cx="330" cy="422" r="6"/>
    <circle cx="182" cy="422" r="6"/>
    <circle cx="256" cy="442" r="6"/>
  </g>

  <g transform="translate(256,270)">
    <path d="M -60 90 Q -60 30 -50 -10 Q -40 -60 0 -80 Q 40 -60 50 -10 Q 60 30 60 90 Z" fill="#3D2314"/>
    <ellipse cx="0" cy="90" rx="62" ry="14" fill="#2A1810"/>
    <circle cx="0" cy="-78" r="14" fill="#3D2314"/>
    <path d="M -14 -78 Q -14 -100 0 -104 Q 14 -100 14 -78" fill="none" stroke="#3D2314" stroke-width="10" stroke-linecap="round"/>
    <path d="M 55 20 Q 100 20 100 -10 Q 100 -35 75 -35" fill="none" stroke="#3D2314" stroke-width="12" stroke-linecap="round"/>
    <path d="M -40 -20 Q -30 -10 -20 -20" stroke="#E8A24C" stroke-width="4" fill="none" opacity="0.6" stroke-linecap="round"/>
    <path d="M -35 10 Q -25 20 -15 10" stroke="#E8A24C" stroke-width="4" fill="none" opacity="0.6" stroke-linecap="round"/>
    <path d="M -30 40 Q -20 50 -10 40" stroke="#E8A24C" stroke-width="4" fill="none" opacity="0.6" stroke-linecap="round"/>
  </g>

  <g transform="translate(316,150)" opacity="0.85">
    <path d="M 0 0 Q -10 -18 0 -34 Q 10 -18 0 0" fill="#F4C874"/>
    <path d="M -16 6 Q -22 -10 -14 -24 Q -6 -12 -16 6" fill="#F4C874" opacity="0.7"/>
  </g>
</svg>
